# xmcd CD database file
#
# Track frame offsets:
#	150
#	15855
#	40535
#	59344
#	89665
#	122550
#	191400
#	211392
#	241907
#	261214
#	283222
#	303499
#	323602
#
# Disc length: 4602 seconds
#
# Revision: 0
# Processed by: cddbd v1.5.2PL0 Copyright (c) Steve Scherf et al.
# Submitted via: CDex 1.83
#
DISCID=ad11f80d
DTITLE=Various Artist - Freedom Tracks
DYEAR=2019
DGENRE=Power Ballad
TTITLE0=Freedom - Jimi Hendrix
TTITLE1=Freedom Rider - Traffic
TTITLE2=Ezy Rider - Jimi Hendrix
TTITLE3=Tragic Magic - Traffic
TTITLE4=Many A Mile To Freedom - Traffic
TTITLE5=Do What You Like - Blind Faith
TTITLE6=Momma's Little Jewel - Mott The Hopple
TTITLE7=One Of The Boys - Mott The Hopple
TTITLE8=Giving To You - Traffic
TTITLE9=Master Hare - Savoy Brown
TTITLE10=Drive-In Saturday - David Bowie
TTITLE11=Saturday Gigs - Mott The Hopple
TTITLE12=Had Me A Real Good Time - Ron Wood and The Jones Gang
EXTD=YEAR: 2019
EXTT0=
EXTT1=
EXTT2=
EXTT3=
EXTT4=
EXTT5=
EXTT6=
EXTT7=
EXTT8=
EXTT9=
EXTT10=
EXTT11=
EXTT12=
PLAYORDER=
